<svg width="48" height="48" viewBox="0 0 48 48" fill="none" xmlns="http://www.w3.org/2000/svg">
<path d="M24 0C10.7621 0 0 10.7621 0 24C0 37.2379 10.7621 48 24 48C37.2379 48 48 37.2379 48 24C48 10.7621 37.2379 0 24 0ZM24 45.7263C12.0253 45.7263 2.27368 35.9747 2.27368 24C2.27368 12.0253 12.0253 2.27368 24 2.27368C35.9747 2.27368 45.7263 11.9747 45.7263 24C45.7263 35.9747 35.9747 45.7263 24 45.7263Z" fill="#EC4700"/>
<path d="M27.4358 23.4442C27.7389 24.5558 31.0737 24.7579 33.0442 24.7579C34.6105 24.7579 38.501 24.6063 40.6737 23.2926C41.9368 22.4842 42.4421 21.12 42.0379 19.5032C41.1284 15.9663 39.36 15.4611 38.3495 15.4611C37.7937 15.4611 37.3895 15.6632 37.3389 15.6632C35.6716 16.32 33.0442 18.0379 31.2758 19.3516C27.1326 22.3832 27.3347 23.0905 27.4358 23.4442Z" fill="#EC4700"/>
<path d="M40.6232 26.9305C38.8042 25.8189 35.52 25.7179 34.1558 25.7179C33.4484 25.7179 29.8105 25.7684 29.5579 26.6779C29.2042 27.9411 36.0758 32.4379 37.9453 33.1958C37.9958 33.1958 38.299 33.3474 38.7537 33.3474C39.5621 33.3474 40.9769 32.8926 41.6842 30.0126C42.0379 28.6484 41.6337 27.5368 40.6232 26.9305Z" fill="#EC4700"/>
<path d="M20.4632 24.7074C20.16 23.5958 16.1684 23.4948 14.9558 23.4948C13.3895 23.4948 9.44844 23.6463 7.32634 24.96C6.1137 25.7179 5.60844 27.0316 6.01265 28.6484C6.8716 32.1348 8.64002 32.64 9.54949 32.64C10.1053 32.64 10.459 32.4884 10.5095 32.4884C12.9348 31.5284 20.8674 26.2737 20.4632 24.7074Z" fill="#EC4700"/>
<path d="M7.02314 21.5242C8.84209 22.6358 12.1263 22.7368 13.4905 22.7368C14.1979 22.7368 17.8358 22.6863 18.0884 21.7768C18.4421 20.5137 11.5705 16.0168 9.70104 15.2589C9.65051 15.2589 9.34735 15.1074 8.89262 15.1074C8.08419 15.1074 6.66946 15.5621 5.96209 18.4421C5.60841 19.8063 6.01262 20.9179 7.02314 21.5242Z" fill="#EC4700"/>
<path d="M25.4653 21.2716C25.5663 21.3221 25.6674 21.3221 25.819 21.3221C27.5369 21.3221 35.6211 15.2084 36.1769 12.581C36.2779 12.2779 36.7326 9.75157 32.3874 7.67999C30.7705 6.92209 29.4063 6.51788 28.2442 6.51788C26.5263 6.51788 25.8695 7.42736 25.7179 7.62946C24.2526 9.49894 24.2021 17.3305 24.8084 20.0589C24.96 20.7663 25.1621 21.12 25.4653 21.2716Z" fill="#EC4700"/>
<path d="M22.4842 21.5747C22.6358 21.5747 22.7874 21.5242 22.8884 21.4737C23.1916 21.3221 23.3432 20.9179 23.4947 20.2105C23.9495 17.381 23.2926 9.44841 21.6758 7.62946C21.5242 7.42736 20.9179 6.66946 19.4021 6.66946C18.1895 6.66946 16.6737 7.17473 14.9558 8.13473C10.6611 10.56 11.3179 13.0863 11.4695 13.3895C12.0758 15.9663 20.6147 21.5747 22.4842 21.5747Z" fill="#EC4700"/>
<path d="M25.92 27.0821C25.8189 27.0821 25.6674 27.0821 25.5663 27.1326C25.2631 27.2842 25.061 27.6379 24.9095 28.2947C24.3031 30.9726 24.4042 38.501 25.8189 40.3705C25.9705 40.6231 26.5768 41.4821 28.2442 41.4821C29.3558 41.4821 30.72 41.0779 32.2863 40.3705C36.5305 38.3495 36.0758 35.9242 35.9747 35.5705C35.4695 32.9937 27.5874 27.0821 25.92 27.0821Z" fill="#EC4700"/>
<path d="M22.939 26.5263C22.8379 26.4758 22.6863 26.4253 22.5348 26.4253C20.6653 26.4253 12.3284 32.3368 11.7221 34.9642C11.6211 35.2674 11.0148 37.8442 15.4105 40.1179C17.1284 41.0274 18.5937 41.4316 19.7558 41.4316C21.3726 41.4316 22.0295 40.6232 22.1811 40.3705C23.7474 38.5011 24.1011 30.5684 23.5453 27.7389C23.3937 27.0821 23.2421 26.6779 22.939 26.5263Z" fill="#EC4700"/>
</svg>
